#!OML:ASF I:\Actors\actors\Patient Classification 2\Patient 1\Session 1\actor1.ASF
:FULLY-SPECIFIED
:DEGREES
608
root -0.677618 18.6981 5.51293 1.21347 -3.89619 -0.888739
lowerback 1.99737 2.9683 -2.61038
upperback 0.750303 3.89357 -2.1949
thorax -0.369248 1.94471 -0.879509
lowerneck -13.0666 -4.38685 -2.85768
upperneck 27.6184 -7.72835 7.39041
head 11.576 -2.90136 2.13741
rclavicle 3.61788e-014 -2.62396e-014
rhumerus -41.8954 43.5903 -85.7254
rradius 73.82
rwrist -17.1459
rhand 3.27141 -55.0212
rfingers 7.12502
rthumb 28.7199 277.167
lclavicle 3.61788e-014 -2.62396e-014
lhumerus -47.221 -39.3136 98.4381
lradius 104.838
lwrist 25.5753
lhand -15.3565 -35.6804
lfingers 7.12502
lthumb 10.8209 -5.97911
rfemur 0 0 0
rtibia 0
rfoot 0 0
rtoes 0
lfemur -3.04306 -6.76959 -13.9503
ltibia 20.5489
lfoot -24.5538 17.6637
ltoes -54.3125
609
root -0.675048 18.6995 5.51343 1.28486 -3.85609 -0.923692
lowerback 2.21859 3.05562 -2.64139
upperback 0.852913 4.0026 -2.24412
thorax -0.386657 1.99879 -0.924892
lowerneck -13.1976 -4.58059 -3.12736
upperneck 27.019 -8.01447 7.83147
head 11.4246 -3.01708 2.29413
rclavicle 2.00773e-014 -3.97569e-015
rhumerus -45.386 44.0097 -86.8356
rradius 73.3767
rwrist -17.8286
rhand 3.89838 -55.7162
rfingers 7.12502
rthumb 29.3187 276.575
lclavicle 2.00773e-014 -3.97569e-015
lhumerus -48.5985 -38.3529 99.4472
lradius 105.071
lwrist 26.927
lhand -15.5469 -34.6672
lfingers 7.12502
lthumb 10.6373 -4.95648
rfemur 0 0 0
rtibia 0
rfoot 0 0
rtoes 0
lfemur -3.16595 -6.7065 -13.8975
ltibia 20.5971
lfoot -24.4764 17.6194
ltoes -54.3112
610
root -0.67698 18.7001 5.51466 1.34275 -3.85893 -0.990921
lowerback 2.48911 3.17236 -2.66704
upperback 0.932932 4.14771 -2.29024
thorax -0.454591 2.07133 -0.975612
lowerneck -13.2545 -4.77183 -3.38096
upperneck 26.4082 -8.29171 8.25851
head 11.2559 -3.13188 2.44433
rclavicle -2.5842e-014 2.94201e-014
rhumerus -49.3667 44.2975 -88.367
rradius 73.3848
rwrist -19.2292
rhand 4.38895 -56.111
rfingers 7.12502
rthumb 29.787 276.263
lclavicle -2.5842e-014 2.94201e-014
lhumerus -49.9355 -37.3799 100.347
lradius 105.447
lwrist 28.735
lhand -15.5218 -33.6016
lfingers 7.12502
lthumb 10.6615 -3.8921
rfemur 0 0 0
rtibia 0
rfoot 0 0
rtoes 0
lfemur -3.2482 -6.64754 -13.8019
ltibia 20.6445
lfoot -24.4675 17.5684
ltoes -54.2274
611
root -0.680074 18.7011 5.51842 1.4715 -3.82718 -1.06313
lowerback 2.65744 3.27048 -2.69411
upperback 0.996965 4.27189 -2.33108
thorax -0.482075 2.1332 -1.01452
lowerneck -13.2895 -4.91952 -3.64879
upperneck 25.804 -8.49849 8.68276
head 11.0844 -3.21766 2.60559
rclavicle 6.33129e-014 -3.49861e-014
rhumerus -53.6717 44.4585 -90.2627
rradius 73.6742
rwrist -21.1841
rhand 4.75861 -56.6137
rfingers 7.12502
rthumb 30.1397 275.824
lclavicle 6.33129e-014 -3.49861e-014
lhumerus -51.1364 -36.3816 101.058
lradius 105.938
lwrist 30.895
lhand -15.261 -32.3247
lfingers 7.12502
lthumb 10.913 -2.62827
rfemur 0 0 0
rtibia 0
rfoot 0 0
rtoes 0
lfemur -3.39541 -6.70457 -13.7015
ltibia 20.6846
lfoot -24.5422 17.5922
ltoes -54.2207
612
root -0.682234 18.7034 5.52299 1.66031 -3.72236 -1.10713
lowerback 2.74058 3.31301 -2.76163
upperback 1.05739 4.32461 -2.37314
thorax -0.468281 2.15903 -1.02496
lowerneck -13.3527 -5.02735 -3.80055
upperneck 25.263 -8.63379 8.9442
head 10.9256 -3.27668 2.69749
rclavicle 1.0138e-014 3.18055e-015
rhumerus -58.1525 44.4781 -92.4101
rradius 74.2248
rwrist -23.2352
rhand 4.87233 -56.8801
rfingers 7.12502
rthumb 30.2482 275.578
lclavicle 1.0138e-014 3.18055e-015
lhumerus -52.1941 -35.3717 101.632
lradius 106.34
lwrist 32.6358
lhand -15.4405 -31.1268
lfingers 7.12502
lthumb 10.7399 -1.42134
rfemur 0 0 0
rtibia 0
rfoot 0 0
rtoes 0
lfemur -3.62321 -6.78809 -13.6205
ltibia 20.7161
lfoot -24.5754 17.5695
ltoes -54.2397
613
root -0.686382 18.7057 5.5265 1.82737 -3.60949 -1.1486
lowerback 2.87718 3.33943 -2.83531
upperback 1.10929 4.35259 -2.43223
thorax -0.492147 2.17278 -1.05247
lowerneck -13.421 -5.12316 -3.87974
upperneck 24.7676 -8.76756 9.18748
head 10.7826 -3.32932 2.77088
rclavicle 1.58034e-014 -1.59028e-015
rhumerus -62.6831 44.2129 -94.6992
rradius 75.0324
rwrist -24.8688
rhand 5.11029 -56.862
rfingers 7.12502
rthumb 30.4752 275.638
lclavicle 1.58034e-014 -1.59028e-015
lhumerus -53.2157 -34.3353 102.038
lradius 106.725
lwrist 33.8037
lhand -15.675 -30.1311
lfingers 7.12502
lthumb 10.5137 -0.414005
rfemur 0 0 0
rtibia 0
rfoot 0 0
rtoes 0
lfemur -3.83227 -6.86977 -13.5321
ltibia 20.744
lfoot -24.5452 17.5143
ltoes -54.2297
614
root -0.69088 18.7079 5.53212 1.98234 -3.52752 -1.18278
lowerback 3.00196 3.34616 -2.88106
upperback 1.15182 4.35517 -2.49583
thorax -0.516552 2.17399 -1.09875
lowerneck -13.4624 -5.18979 -3.94885
upperneck 24.258 -8.84808 9.38966
head 10.6235 -3.36338 2.83534
rclavicle -2.18663e-014 7.95139e-015
rhumerus -67.1477 43.6715 -97.056
rradius 76.0267
rwrist -26.2123
rhand 5.75891 -57.0265
rfingers 7.12502
rthumb 31.0936 275.59
lclavicle -2.18663e-014 7.95139e-015
lhumerus -54.1855 -33.2339 102.27
lradius 107.122
lwrist 34.6488
lhand -15.5474 -29.2112
lfingers 7.12502
lthumb 10.6368 0.49955
rfemur 0 0 0
rtibia 0
rfoot 0 0
rtoes 0
lfemur -4.00191 -6.99903 -13.4636
ltibia 20.7602
lfoot -24.5824 17.517
ltoes -54.1876
615
root -0.693334 18.7099 5.54287 2.16312 -3.4427 -1.20893
lowerback 2.9942 3.32453 -2.86839
upperback 1.21008 4.32877 -2.57347
thorax -0.445341 2.16027 -1.18128
lowerneck -13.4572 -5.23785 -3.99563
upperneck 23.7259 -8.89726 9.56528
head 10.4436 -3.38682 2.89134
rclavicle -3.37934e-014 9.54166e-015
rhumerus -71.4771 42.8564 -99.4141
rradius 77.1958
rwrist -27.8507
rhand 6.55947 -57.3573
rfingers 7.12502
rthumb 31.8563 275.408
lclavicle -3.37934e-014 9.54166e-015
lhumerus -55.0036 -32.1751 102.384
lradius 107.42
lwrist 35.2382
lhand -15.2916 -28.192
lfingers 7.12502
lthumb 10.8835 1.50599
rfemur 0 0 0
rtibia 0
rfoot 0 0
rtoes 0
lfemur -4.17509 -7.19301 -13.4226
ltibia 20.7619
lfoot -24.6999 17.5836
ltoes -54.1209
616
root -0.698763 18.7113 5.55354 2.31982 -3.36024 -1.2774
lowerback 3.03722 3.29956 -2.80521
upperback 1.24797 4.29616 -2.65967
thorax -0.419171 2.1441 -1.30436
lowerneck -13.4474 -5.27576 -4.05795
upperneck 23.26 -8.97331 9.88847
head 10.2999 -3.40623 2.99994
rclavicle 3.78685e-014 -3.18055e-015
rhumerus -75.673 41.659 -101.745
rradius 78.5325
rwrist -29.9325
rhand 7.36134 -57.8361
rfingers 7.12502
rthumb 32.6196 275.084
lclavicle 3.78685e-014 -3.18055e-015
lhumerus -55.7806 -31.2927 102.396
lradius 107.705
lwrist 35.6274
lhand -15.0366 -27.1029
lfingers 7.12502
lthumb 11.1295 2.582
rfemur 0 0 0
rtibia 0
rfoot 0 0
rtoes 0
lfemur -4.31579 -7.21228 -13.295
ltibia 20.7455
lfoot -24.7085 17.5009
ltoes -54.0914
617
root -0.704237 18.7123 5.56219 2.46262 -3.30735 -1.33837
lowerback 3.16278 3.29888 -2.69208
upperback 1.27435 4.293 -2.75187
thorax -0.44683 2.14325 -1.46807
lowerneck -13.6351 -5.36253 -4.18341
upperneck 22.9695 -9.12295 10.2294
head 10.2695 -3.45134 3.11337
rclavicle -3.35946e-014 2.70347e-014
rhumerus -79.6742 40.0363 -103.819
rradius 80.1057
rwrist -32.0314
rhand 8.09791 -58.5065
rfingers 7.12502
rthumb 33.3201 274.561
lclavicle -3.35946e-014 2.70347e-014
lhumerus -56.6594 -30.6748 102.335
lradius 108.12
lwrist 35.9361
lhand -14.8458 -26.244
lfingers 7.12502
lthumb 11.3135 3.43085
rfemur 0 0 0
rtibia 0
rfoot 0 0
rtoes 0
lfemur -4.43525 -7.21696 -13.1776
ltibia 20.7194
lfoot -24.6424 17.4221
ltoes -54.046
618
root -0.708661 18.711 5.57011 2.52587 -3.27653 -1.36095
lowerback 3.34626 3.33841 -2.57631
upperback 1.34296 4.34259 -2.83838
thorax -0.463172 2.16859 -1.63163
lowerneck -13.8599 -5.49087 -4.25575
upperneck 22.6885 -9.29757 10.396
head 10.2404 -3.52084 3.15098
rclavicle 5.36719e-014 -1.43125e-014
rhumerus -83.405 38.075 -105.52
rradius 81.9237
rwrist -33.8076
rhand 8.66441 -58.9933
rfingers 7.12502
rthumb 33.8585 274.192
lclavicle 5.36719e-014 -1.43125e-014
lhumerus -57.5463 -30.3311 102.275
lradius 108.536
lwrist 36.3187
lhand -14.7675 -25.5951
lfingers 7.12502
lthumb 11.3889 4.07565
rfemur 0 0 0
rtibia 0
rfoot 0 0
rtoes 0
lfemur -4.47859 -7.16738 -13.1211
ltibia 20.7173
lfoot -24.5179 17.3162
ltoes -54.1066
